<?xml version="1.0" encoding="UTF-8"?>
<svg id="_Слой_1" data-name="Слой_1" xmlns="http://www.w3.org/2000/svg" version="1.1" viewBox="0 0 48 48">
  <!-- Generator: Adobe Illustrator 30.1.0, SVG Export Plug-In . SVG Version: 2.1.1 Build 136)  -->
  <defs>
    <style>
      .st0 {
        fill: #232536;
      }

      .st1 {
        fill: #ffd050;
      }
    </style>
  </defs>
  <path class="st0" d="M26.04,3.7L4.04.36c-1.02-.16-2.06.12-2.84.78C.41,1.82-.04,2.8-.04,3.82v42.18c0,1.1.9,2,2,2h6.51v-10.51c0-1.94,1.56-3.5,3.5-3.5h5.01c1.94,0,3.5,1.56,3.5,3.5v10.51h8.51V7.16c0-1.72-1.25-3.18-2.95-3.47ZM10.97,29.48h-3c-.83,0-1.5-.67-1.5-1.5s.67-1.5,1.5-1.5h3c.83,0,1.5.67,1.5,1.5s-.67,1.5-1.5,1.5ZM10.97,23.48h-3c-.83,0-1.5-.67-1.5-1.5s.67-1.5,1.5-1.5h3c.83,0,1.5.67,1.5,1.5s-.67,1.5-1.5,1.5ZM10.97,17.47h-3c-.83,0-1.5-.67-1.5-1.5s.67-1.5,1.5-1.5h3c.83,0,1.5.67,1.5,1.5s-.67,1.5-1.5,1.5ZM10.97,11.47h-3c-.83,0-1.5-.67-1.5-1.5s.67-1.5,1.5-1.5h3c.83,0,1.5.67,1.5,1.5s-.67,1.5-1.5,1.5ZM20.97,29.48h-3c-.83,0-1.5-.67-1.5-1.5s.67-1.5,1.5-1.5h3c.83,0,1.5.67,1.5,1.5s-.67,1.5-1.5,1.5ZM20.97,23.48h-3c-.83,0-1.5-.67-1.5-1.5s.67-1.5,1.5-1.5h3c.83,0,1.5.67,1.5,1.5s-.67,1.5-1.5,1.5ZM20.97,17.47h-3c-.83,0-1.5-.67-1.5-1.5s.67-1.5,1.5-1.5h3c.83,0,1.5.67,1.5,1.5s-.67,1.5-1.5,1.5ZM20.97,11.47h-3c-.83,0-1.5-.67-1.5-1.5s.67-1.5,1.5-1.5h3c.83,0,1.5.67,1.5,1.5s-.67,1.5-1.5,1.5Z"/>
  <path class="st1" d="M45.24,21.66l-14.25-2.98v29.32h13.51c1.93,0,3.5-1.57,3.5-3.5v-19.41c0-1.65-1.13-3.06-2.76-3.42ZM40.49,41.99h-3c-.83,0-1.5-.67-1.5-1.5s.67-1.5,1.5-1.5h3c.83,0,1.5.67,1.5,1.5s-.67,1.5-1.5,1.5ZM40.49,35.99h-3c-.83,0-1.5-.67-1.5-1.5s.67-1.5,1.5-1.5h3c.83,0,1.5.67,1.5,1.5s-.67,1.5-1.5,1.5ZM40.49,29.98h-3c-.83,0-1.5-.67-1.5-1.5s.67-1.5,1.5-1.5h3c.83,0,1.5.67,1.5,1.5s-.67,1.5-1.5,1.5Z"/>
</svg>