<?xml version="1.0" encoding="UTF-8"?>
<svg id="_Слой_1" data-name="Слой 1" xmlns="http://www.w3.org/2000/svg" viewBox="0 0 98.9 98.9">
  <g>
    <path d="M49.45,73.71c-13.37,0-24.26-10.88-24.26-24.26s10.88-24.26,24.26-24.26,24.26,10.88,24.26,24.26-10.88,24.26-24.26,24.26Z"/>
    <path d="M49.45,25.7c13.1,0,23.76,10.66,23.76,23.76s-10.66,23.76-23.76,23.76-23.76-10.66-23.76-23.76,10.66-23.76,23.76-23.76M49.45,24.7c-13.67,0-24.76,11.08-24.76,24.76s11.08,24.76,24.76,24.76,24.76-11.08,24.76-24.76-11.08-24.76-24.76-24.76h0Z"/>
  </g>
  <g>
    <path d="M49.45,17.7c-1.81,0-3.28-1.47-3.28-3.28V3.78c0-1.81,1.47-3.28,3.28-3.28s3.28,1.47,3.28,3.28v10.63c0,1.81-1.47,3.28-3.28,3.28Z"/>
    <path d="M49.45,1c1.53,0,2.78,1.25,2.78,2.78v10.63c0,1.53-1.25,2.78-2.78,2.78s-2.78-1.25-2.78-2.78V3.78c0-1.53,1.25-2.78,2.78-2.78M49.45,0c-2.09,0-3.78,1.69-3.78,3.78v10.63c0,2.09,1.69,3.78,3.78,3.78s3.78-1.69,3.78-3.78V3.78c0-2.09-1.69-3.78-3.78-3.78h0Z"/>
  </g>
  <g>
    <path d="M31.94,22.4c-1.17,0-2.26-.63-2.85-1.64l-5.32-9.21c-.91-1.57-.37-3.58,1.2-4.49.5-.29,1.07-.44,1.64-.44,1.17,0,2.26.63,2.85,1.64l5.32,9.21c.91,1.57.37,3.58-1.2,4.49-.5.29-1.07.44-1.64.44h0Z"/>
    <path d="M26.61,7.12c.99,0,1.92.53,2.41,1.39l5.32,9.21c.37.64.47,1.39.28,2.11-.19.72-.65,1.32-1.3,1.69-.42.24-.9.37-1.39.37-.99,0-1.92-.53-2.41-1.39l-5.32-9.21c-.37-.64-.47-1.39-.28-2.11.19-.72.65-1.32,1.3-1.69.42-.24.9-.37,1.39-.37M26.61,6.12c-.64,0-1.29.16-1.89.51-1.81,1.04-2.43,3.36-1.38,5.17l5.32,9.21c.7,1.21,1.97,1.89,3.28,1.89.64,0,1.29-.16,1.89-.51h0c1.81-1.04,2.43-3.36,1.38-5.17l-5.32-9.21c-.7-1.21-1.97-1.89-3.28-1.89h0Z"/>
  </g>
  <g>
    <path d="M19.11,35.22c-.57,0-1.14-.15-1.64-.44l-9.21-5.32c-1.57-.91-2.11-2.92-1.2-4.49.58-1.01,1.68-1.64,2.85-1.64.57,0,1.14.15,1.64.44l9.21,5.32c1.57.91,2.11,2.92,1.2,4.49-.58,1.01-1.68,1.64-2.85,1.64h0Z"/>
    <path d="M9.91,23.83c.48,0,.97.13,1.39.37l9.21,5.32c.64.37,1.1.97,1.3,1.69.19.72.09,1.47-.28,2.11-.5.86-1.42,1.39-2.41,1.39-.48,0-.97-.13-1.39-.37l-9.21-5.32c-.64-.37-1.1-.97-1.3-1.69s-.09-1.47.28-2.11c.5-.86,1.42-1.39,2.41-1.39M9.91,22.83c-1.31,0-2.58.68-3.28,1.89-1.04,1.81-.42,4.12,1.38,5.17l9.21,5.32c.6.34,1.25.51,1.89.51,1.31,0,2.58-.68,3.28-1.89h0c1.04-1.81.42-4.12-1.38-5.17l-9.21-5.32c-.6-.34-1.25-.51-1.89-.51h0Z"/>
  </g>
  <g>
    <path d="M3.78,52.74c-1.81,0-3.28-1.47-3.28-3.28s1.47-3.28,3.28-3.28h10.63c1.81,0,3.28,1.47,3.28,3.28s-1.47,3.28-3.28,3.28H3.78Z"/>
    <path d="M14.42,46.67c1.53,0,2.78,1.25,2.78,2.78s-1.25,2.78-2.78,2.78H3.78c-1.53,0-2.78-1.25-2.78-2.78s1.25-2.78,2.78-2.78h10.63M14.42,45.67H3.78c-2.09,0-3.78,1.69-3.78,3.78s1.69,3.78,3.78,3.78h10.63c2.09,0,3.78-1.69,3.78-3.78s-1.69-3.78-3.78-3.78h0Z"/>
  </g>
  <g>
    <path d="M9.91,75.57c-1.17,0-2.26-.63-2.85-1.64-.44-.76-.56-1.64-.33-2.49.23-.85.77-1.56,1.53-1.99l9.21-5.32c.5-.29,1.07-.44,1.64-.44,1.17,0,2.26.63,2.85,1.64.44.76.56,1.64.33,2.49-.23.85-.77,1.55-1.53,1.99l-9.21,5.32c-.5.29-1.07.44-1.64.44h0Z"/>
    <path d="M19.11,64.18c.99,0,1.92.53,2.41,1.39.37.64.47,1.39.28,2.11-.19.72-.65,1.32-1.3,1.69l-9.21,5.32c-.42.24-.9.37-1.39.37-.99,0-1.92-.53-2.41-1.39-.37-.64-.47-1.39-.28-2.11.19-.72.65-1.32,1.3-1.69l9.21-5.32c.42-.24.9-.37,1.39-.37M19.11,63.18c-.64,0-1.29.16-1.89.51l-9.21,5.32c-1.81,1.04-2.43,3.36-1.38,5.17h0c.7,1.21,1.97,1.89,3.28,1.89.64,0,1.29-.16,1.89-.51l9.21-5.32c1.81-1.04,2.43-3.36,1.38-5.17h0c-.7-1.21-1.97-1.89-3.28-1.89h0Z"/>
  </g>
  <g>
    <path d="M26.61,92.29c-.57,0-1.14-.15-1.64-.44-1.57-.91-2.11-2.92-1.2-4.49l5.32-9.21c.58-1.01,1.68-1.64,2.85-1.64.57,0,1.14.15,1.64.44,1.57.91,2.11,2.92,1.2,4.49l-5.32,9.21c-.58,1.01-1.68,1.64-2.85,1.64h0Z"/>
    <path d="M31.94,77.01c.48,0,.97.13,1.39.37.64.37,1.1.97,1.3,1.69.19.72.09,1.47-.28,2.11l-5.32,9.21c-.5.86-1.42,1.39-2.41,1.39-.48,0-.97-.13-1.39-.37-.64-.37-1.1-.97-1.3-1.69-.19-.72-.09-1.47.28-2.11l5.32-9.21c.5-.86,1.42-1.39,2.41-1.39M31.94,76.01c-1.31,0-2.58.68-3.28,1.89l-5.32,9.21c-1.04,1.81-.42,4.12,1.38,5.17.6.34,1.25.51,1.89.51,1.31,0,2.58-.68,3.28-1.89l5.32-9.21c1.04-1.81.42-4.12-1.38-5.17h0c-.6-.34-1.25-.51-1.89-.51h0Z"/>
  </g>
  <g>
    <path d="M49.45,98.4c-1.81,0-3.28-1.47-3.28-3.28v-10.63c0-1.81,1.47-3.28,3.28-3.28s3.28,1.47,3.28,3.28v10.63c0,1.81-1.47,3.28-3.28,3.28Z"/>
    <path d="M49.45,81.7c1.53,0,2.78,1.25,2.78,2.78v10.63c0,1.53-1.25,2.78-2.78,2.78s-2.78-1.25-2.78-2.78v-10.63c0-1.53,1.25-2.78,2.78-2.78M49.45,80.7c-2.09,0-3.78,1.69-3.78,3.78v10.63c0,2.09,1.69,3.78,3.78,3.78s3.78-1.69,3.78-3.78v-10.63c0-2.09-1.69-3.78-3.78-3.78h0Z"/>
  </g>
  <g>
    <path d="M72.29,92.29c-1.17,0-2.26-.63-2.85-1.64l-5.32-9.21c-.91-1.57-.37-3.58,1.2-4.49.5-.29,1.07-.44,1.64-.44,1.17,0,2.26.63,2.85,1.64l5.32,9.21c.9,1.57.37,3.58-1.2,4.49-.5.29-1.07.44-1.64.44h0Z"/>
    <path d="M66.97,77.01c.99,0,1.92.53,2.41,1.39l5.32,9.21c.37.64.47,1.39.28,2.11-.19.72-.65,1.32-1.3,1.69-.42.24-.9.37-1.39.37-.99,0-1.92-.53-2.41-1.39l-5.32-9.21c-.37-.64-.47-1.39-.28-2.11.19-.72.65-1.32,1.3-1.69.42-.24.9-.37,1.39-.37M66.97,76.01c-.64,0-1.29.16-1.89.51h0c-1.81,1.04-2.43,3.36-1.38,5.17l5.32,9.21c.7,1.21,1.97,1.89,3.28,1.89.64,0,1.29-.16,1.89-.51h0c1.81-1.04,2.43-3.36,1.38-5.17l-5.32-9.21c-.7-1.21-1.97-1.89-3.28-1.89h0Z"/>
  </g>
  <g>
    <path d="M89,75.57c-.57,0-1.14-.15-1.64-.44l-9.21-5.32c-1.57-.91-2.11-2.92-1.2-4.49.58-1.01,1.68-1.64,2.85-1.64.57,0,1.14.15,1.64.44l9.21,5.32c.76.44,1.3,1.15,1.53,1.99.23.85.11,1.73-.33,2.49-.58,1.01-1.68,1.64-2.85,1.64Z"/>
    <path d="M79.8,64.18c.48,0,.97.13,1.39.37l9.21,5.32c1.33.77,1.79,2.47,1.02,3.8-.5.86-1.42,1.39-2.41,1.39-.48,0-.97-.13-1.39-.37l-9.21-5.32c-1.33-.77-1.79-2.47-1.02-3.8.5-.86,1.42-1.39,2.41-1.39M79.8,63.18c-1.31,0-2.58.68-3.28,1.89h0c-1.04,1.81-.42,4.12,1.38,5.17l9.21,5.32c.6.34,1.25.51,1.89.51,1.31,0,2.58-.68,3.28-1.89h0c1.04-1.81.42-4.12-1.38-5.17l-9.21-5.32c-.6-.34-1.25-.51-1.89-.51h0Z"/>
  </g>
  <g>
    <path d="M84.49,52.74c-1.81,0-3.28-1.47-3.28-3.28s1.47-3.28,3.28-3.28h10.63c1.81,0,3.28,1.47,3.28,3.28s-1.47,3.28-3.28,3.28h-10.63Z"/>
    <path d="M95.12,46.67c1.53,0,2.78,1.25,2.78,2.78s-1.25,2.78-2.78,2.78h-10.63c-1.53,0-2.78-1.25-2.78-2.78s1.25-2.78,2.78-2.78h10.63M95.12,45.67h-10.63c-2.09,0-3.78,1.69-3.78,3.78s1.69,3.78,3.78,3.78h10.63c2.09,0,3.78-1.69,3.78-3.78s-1.69-3.78-3.78-3.78h0Z"/>
  </g>
  <g>
    <path d="M79.8,35.22c-1.17,0-2.26-.63-2.85-1.64-.91-1.57-.37-3.58,1.2-4.49l9.21-5.32c.5-.29,1.07-.44,1.64-.44,1.17,0,2.26.63,2.85,1.64.91,1.57.37,3.58-1.2,4.49l-9.21,5.32c-.5.29-1.07.44-1.64.44h0Z"/>
    <path d="M89,23.83c.99,0,1.92.53,2.41,1.39.77,1.33.31,3.04-1.02,3.8l-9.21,5.32c-.42.24-.9.37-1.39.37-.99,0-1.92-.53-2.41-1.39-.77-1.33-.31-3.04,1.02-3.8l9.21-5.32c.42-.24.9-.37,1.39-.37M89,22.83c-.64,0-1.29.16-1.89.51l-9.21,5.32c-1.81,1.04-2.43,3.36-1.38,5.17h0c.7,1.21,1.97,1.89,3.28,1.89.64,0,1.29-.16,1.89-.51l9.21-5.32c1.81-1.04,2.43-3.36,1.38-5.17-.7-1.21-1.97-1.89-3.28-1.89h0Z"/>
  </g>
  <g>
    <path d="M66.97,22.4c-.57,0-1.14-.15-1.64-.44-1.57-.91-2.11-2.92-1.2-4.49l5.32-9.21c.58-1.01,1.68-1.64,2.85-1.64.57,0,1.14.15,1.64.44,1.57.9,2.11,2.92,1.2,4.49l-5.32,9.21c-.58,1.01-1.68,1.64-2.85,1.64h0Z"/>
    <path d="M72.29,7.12c.49,0,.97.13,1.39.37,1.33.77,1.79,2.47,1.02,3.8l-5.32,9.21c-.5.86-1.42,1.39-2.41,1.39-.48,0-.97-.13-1.39-.37-1.33-.77-1.79-2.47-1.02-3.8l5.32-9.21c.5-.86,1.42-1.39,2.41-1.39M72.29,6.12c-1.31,0-2.58.68-3.28,1.89l-5.32,9.21c-1.04,1.81-.42,4.12,1.38,5.17h0c.6.34,1.25.51,1.89.51,1.31,0,2.58-.68,3.28-1.89l5.32-9.21c1.04-1.81.42-4.12-1.38-5.17h0c-.6-.34-1.25-.51-1.89-.51h0Z"/>
  </g>
</svg>